. 
 
http://www.torrenting.com          :     Once & For all ;)


               www . Torrenting . Com 

(((((((((((((= Enjoy No RAR releases =))))))))))))))))))))


...................................NFO:....................................



[color=green][size=3]General Info[/size][/color]
ENCODER     : Kobe
Source Video: BD Disk
Source Audio: BD Disk  
Channel     : 6 channels 
IMDB        : http://www.imdb.com/title/tt1524137/
subs        : Yes: Forced subs where needed 
NEWS        : Were back! We got some surprises for ya! :D


Video
ID                                       : 0
Format                                   : MPEG-4 Visual
Format profile                           : Advanced Simple@L5
Format settings, BVOP                    : 2
Format settings, QPel                    : No
Format settings, GMC                     : No warppoints
Format settings, Matrix                  : Default (H.263)
Muxing mode                              : Packed bitstream
Codec ID                                 : XVID
Codec ID/Hint                            : XviD
Duration                                 : 1h 49mn
Bit rate                                 : 1 895 Kbps
Width                                    : 720 pixels
Height                                   : 304 pixels
Display aspect ratio                     : 2.35:1
Frame rate                               : 23.976 fps
Color space                              : YUV
Chroma subsampling                       : 4:2:0
Bit depth                                : 8 bits
Scan type                                : Progressive
Compression mode                         : Lossy
Bits/(Pixel*Frame)                       : 0.361
Stream size                              : 1.45 GiB (83%)
Writing library                          : XviD 64




Audio
ID                                       : 1
Format                                   : AC-3
Format/Info                              : Audio Coding 3
Mode extension                           : CM (complete main)
Codec ID                                 : 2000
Duration                                 : 1h 49mn
Bit rate mode                            : Constant
Bit rate                                 : 384 Kbps
Channel(s)                               : 6 channels
Channel positions                        : Front: L C R, Side: L R, LFE
Sampling rate                            : 48.0 KHz
Bit depth                                : 16 bits
Compression mode                         : Lossy
Stream size                              : 301 MiB (17%)
Alignment                                : Aligned on interleaves
Interleave, duration                     : 64 ms (1.53 video frames)
Interleave, preload duration             : 192 ms
Title                                    : contraband







NOTE: 
Well spring break is over. So we are back on track with a nice BDRip to share.
Enjoy :D






 

[color=Green][size=3]Greetz[/size][/color]
Unevano,Mr.hive :rock: R3dRuM,rfcgazza,Killerhz,cooperman,ANALOG,26K,Inspiral,HOPE,Toffee :rock:, KoDeKinG :P 

[img]http://i.imgbox.com/aadgVsYh.png[/img]
[img]http://i.imgbox.com/aarAVyPP.png[/img]
[img]http://i.imgbox.com/aayj1Mjr.png[/img]




[img]http://i.imgbox.com/aacw6ohs.jpg[/img]